<mxfile host="app.diagrams.net" modified="2023-07-18T10:31:34.084Z" agent="Mozilla/5.0 (Windows NT 10.0; Win64; x64; rv:109.0) Gecko/20100101 Firefox/115.0" etag="H7-1wRbObur1fp5URgXM" version="21.6.2" type="github">
  <diagram name="Page-1" id="e_KFraeinX5oosyNe6Kh">
    <mxGraphModel dx="1304" dy="711" grid="1" gridSize="10" guides="1" tooltips="1" connect="1" arrows="1" fold="1" page="1" pageScale="1" pageWidth="1200" pageHeight="1920" math="0" shadow="0">
      <root>
        <mxCell id="0" />
        <mxCell id="1" parent="0" />
        <mxCell id="lxY1VcK9E-mRwptWyb03-17" value="" style="group" vertex="1" connectable="0" parent="1">
          <mxGeometry x="40" y="60" width="520" height="460" as="geometry" />
        </mxCell>
        <mxCell id="lxY1VcK9E-mRwptWyb03-2" value="OSC" style="ellipse;whiteSpace=wrap;aspect=fixed;strokeWidth=2;fillColor=#dae8fc;strokeColor=#6c8ebf;sketch=1;curveFitting=1;jiggle=2;fontFamily=Architects Daughter;fontSource=https%3A%2F%2Ffonts.googleapis.com%2Fcss%3Ffamily%3DArchitects%2BDaughter;fontSize=18;labelPosition=center;verticalLabelPosition=middle;align=center;verticalAlign=middle;labelBackgroundColor=none;labelBorderColor=none;html=1;spacingRight=0;spacingLeft=0;spacing=2;fontStyle=0" vertex="1" parent="lxY1VcK9E-mRwptWyb03-17">
          <mxGeometry y="140" width="80" height="80" as="geometry" />
        </mxCell>
        <mxCell id="lxY1VcK9E-mRwptWyb03-4" value="LFO" style="triangle;whiteSpace=wrap;strokeWidth=2;fillColor=#ffe6cc;strokeColor=#d79b00;sketch=1;curveFitting=1;jiggle=2;shadow=0;fontFamily=Architects Daughter;fontSource=https%3A%2F%2Ffonts.googleapis.com%2Fcss%3Ffamily%3DArchitects%2BDaughter;fontSize=18;labelPosition=center;verticalLabelPosition=middle;align=center;verticalAlign=middle;labelBackgroundColor=none;labelBorderColor=none;html=1;spacingRight=0;spacingLeft=0;spacing=2;fontStyle=0" vertex="1" parent="lxY1VcK9E-mRwptWyb03-17">
          <mxGeometry x="130" y="260" width="60" height="80" as="geometry" />
        </mxCell>
        <mxCell id="lxY1VcK9E-mRwptWyb03-5" value="EG" style="triangle;whiteSpace=wrap;strokeWidth=2;fillColor=#ffe6cc;strokeColor=#d79b00;rounded=0;sketch=1;curveFitting=1;jiggle=2;fontFamily=Architects Daughter;fontSource=https%3A%2F%2Ffonts.googleapis.com%2Fcss%3Ffamily%3DArchitects%2BDaughter;fontSize=18;labelPosition=center;verticalLabelPosition=middle;align=center;verticalAlign=middle;labelBackgroundColor=none;labelBorderColor=none;html=1;spacingRight=0;spacingLeft=0;spacing=2;fontStyle=0" vertex="1" parent="lxY1VcK9E-mRwptWyb03-17">
          <mxGeometry x="290" y="260" width="60" height="80" as="geometry" />
        </mxCell>
        <mxCell id="lxY1VcK9E-mRwptWyb03-16" style="edgeStyle=orthogonalEdgeStyle;rounded=0;sketch=1;hachureGap=4;jiggle=2;curveFitting=1;orthogonalLoop=1;jettySize=auto;html=1;exitX=1;exitY=0.5;exitDx=0;exitDy=0;fontFamily=Architects Daughter;fontSource=https%3A%2F%2Ffonts.googleapis.com%2Fcss%3Ffamily%3DArchitects%2BDaughter;fontSize=16;fillColor=#f8cecc;strokeColor=#b85450;strokeWidth=2;" edge="1" parent="lxY1VcK9E-mRwptWyb03-17" source="lxY1VcK9E-mRwptWyb03-6">
          <mxGeometry relative="1" as="geometry">
            <mxPoint x="520" y="420" as="targetPoint" />
          </mxGeometry>
        </mxCell>
        <mxCell id="lxY1VcK9E-mRwptWyb03-6" value="LPG" style="triangle;whiteSpace=wrap;fillColor=#e1d5e7;strokeColor=#9673a6;strokeWidth=2;rounded=0;sketch=1;curveFitting=1;jiggle=2;fontFamily=Architects Daughter;fontSource=https%3A%2F%2Ffonts.googleapis.com%2Fcss%3Ffamily%3DArchitects%2BDaughter;fontSize=18;labelPosition=center;verticalLabelPosition=middle;align=center;verticalAlign=middle;labelBackgroundColor=none;labelBorderColor=none;html=1;spacingRight=0;spacingLeft=0;spacing=2;fontStyle=0" vertex="1" parent="lxY1VcK9E-mRwptWyb03-17">
          <mxGeometry x="370" y="380" width="60" height="80" as="geometry" />
        </mxCell>
        <mxCell id="lxY1VcK9E-mRwptWyb03-10" style="edgeStyle=orthogonalEdgeStyle;sketch=1;hachureGap=4;jiggle=2;curveFitting=1;orthogonalLoop=1;jettySize=auto;html=1;entryX=0.5;entryY=0;entryDx=0;entryDy=0;fontFamily=Architects Daughter;fontSource=https%3A%2F%2Ffonts.googleapis.com%2Fcss%3Ffamily%3DArchitects%2BDaughter;fontSize=16;fillColor=#dae8fc;strokeColor=#6c8ebf;strokeWidth=2;curved=1;" edge="1" parent="lxY1VcK9E-mRwptWyb03-17" source="lxY1VcK9E-mRwptWyb03-5" target="lxY1VcK9E-mRwptWyb03-6">
          <mxGeometry relative="1" as="geometry" />
        </mxCell>
        <mxCell id="lxY1VcK9E-mRwptWyb03-8" style="edgeStyle=orthogonalEdgeStyle;sketch=1;hachureGap=4;jiggle=2;curveFitting=1;orthogonalLoop=1;jettySize=auto;html=1;entryX=0.5;entryY=0;entryDx=0;entryDy=0;fontFamily=Architects Daughter;fontSource=https%3A%2F%2Ffonts.googleapis.com%2Fcss%3Ffamily%3DArchitects%2BDaughter;fontSize=16;strokeWidth=2;curved=1;fillColor=#e1d5e7;strokeColor=#9673a6;" edge="1" parent="lxY1VcK9E-mRwptWyb03-17" source="lxY1VcK9E-mRwptWyb03-7" target="lxY1VcK9E-mRwptWyb03-2">
          <mxGeometry relative="1" as="geometry" />
        </mxCell>
        <mxCell id="lxY1VcK9E-mRwptWyb03-9" style="edgeStyle=orthogonalEdgeStyle;sketch=1;hachureGap=4;jiggle=2;curveFitting=1;orthogonalLoop=1;jettySize=auto;html=1;fontFamily=Architects Daughter;fontSource=https%3A%2F%2Ffonts.googleapis.com%2Fcss%3Ffamily%3DArchitects%2BDaughter;fontSize=16;strokeWidth=2;fillColor=#ffe6cc;strokeColor=#d79b00;curved=1;" edge="1" parent="lxY1VcK9E-mRwptWyb03-17" source="lxY1VcK9E-mRwptWyb03-7" target="lxY1VcK9E-mRwptWyb03-5">
          <mxGeometry relative="1" as="geometry" />
        </mxCell>
        <mxCell id="lxY1VcK9E-mRwptWyb03-7" value="Seq" style="shape=process;whiteSpace=wrap;html=1;backgroundOutline=1;sketch=1;hachureGap=4;jiggle=2;curveFitting=1;fontFamily=Architects Daughter;fontSource=https%3A%2F%2Ffonts.googleapis.com%2Fcss%3Ffamily%3DArchitects%2BDaughter;fontSize=20;" vertex="1" parent="lxY1VcK9E-mRwptWyb03-17">
          <mxGeometry x="260" y="-10" width="120" height="60" as="geometry" />
        </mxCell>
        <mxCell id="lxY1VcK9E-mRwptWyb03-14" style="edgeStyle=orthogonalEdgeStyle;sketch=1;hachureGap=4;jiggle=2;curveFitting=1;orthogonalLoop=1;jettySize=auto;html=1;entryX=0;entryY=0.5;entryDx=0;entryDy=0;fontFamily=Architects Daughter;fontSource=https%3A%2F%2Ffonts.googleapis.com%2Fcss%3Ffamily%3DArchitects%2BDaughter;fontSize=16;fillColor=#f8cecc;strokeColor=#b85450;curved=1;strokeWidth=2;" edge="1" parent="lxY1VcK9E-mRwptWyb03-17" source="lxY1VcK9E-mRwptWyb03-12" target="lxY1VcK9E-mRwptWyb03-6">
          <mxGeometry relative="1" as="geometry" />
        </mxCell>
        <mxCell id="lxY1VcK9E-mRwptWyb03-12" value="Fold" style="rhombus;whiteSpace=wrap;html=1;sketch=1;hachureGap=4;jiggle=2;curveFitting=1;fontFamily=Architects Daughter;fontSource=https%3A%2F%2Ffonts.googleapis.com%2Fcss%3Ffamily%3DArchitects%2BDaughter;fontSize=20;fillColor=#e1d5e7;strokeColor=#9673a6;strokeWidth=2;" vertex="1" parent="lxY1VcK9E-mRwptWyb03-17">
          <mxGeometry x="200" y="380" width="80" height="80" as="geometry" />
        </mxCell>
        <mxCell id="lxY1VcK9E-mRwptWyb03-11" style="edgeStyle=orthogonalEdgeStyle;sketch=1;hachureGap=4;jiggle=2;curveFitting=1;orthogonalLoop=1;jettySize=auto;html=1;entryX=0;entryY=0.5;entryDx=0;entryDy=0;fontFamily=Architects Daughter;fontSource=https%3A%2F%2Ffonts.googleapis.com%2Fcss%3Ffamily%3DArchitects%2BDaughter;fontSize=16;curved=1;strokeWidth=2;fillColor=#f8cecc;strokeColor=#b85450;exitX=0.5;exitY=1;exitDx=0;exitDy=0;" edge="1" parent="lxY1VcK9E-mRwptWyb03-17" source="lxY1VcK9E-mRwptWyb03-2" target="lxY1VcK9E-mRwptWyb03-12">
          <mxGeometry relative="1" as="geometry" />
        </mxCell>
        <mxCell id="lxY1VcK9E-mRwptWyb03-15" style="edgeStyle=orthogonalEdgeStyle;sketch=1;hachureGap=4;jiggle=2;curveFitting=1;orthogonalLoop=1;jettySize=auto;html=1;exitX=1;exitY=0.5;exitDx=0;exitDy=0;entryX=0.5;entryY=0;entryDx=0;entryDy=0;fontFamily=Architects Daughter;fontSource=https%3A%2F%2Ffonts.googleapis.com%2Fcss%3Ffamily%3DArchitects%2BDaughter;fontSize=16;fillColor=#dae8fc;strokeColor=#6c8ebf;curved=1;strokeWidth=2;" edge="1" parent="lxY1VcK9E-mRwptWyb03-17" source="lxY1VcK9E-mRwptWyb03-4" target="lxY1VcK9E-mRwptWyb03-12">
          <mxGeometry relative="1" as="geometry" />
        </mxCell>
        <mxCell id="lxY1VcK9E-mRwptWyb03-19" value="" style="group" vertex="1" connectable="0" parent="1">
          <mxGeometry x="640" y="60" width="520" height="460" as="geometry" />
        </mxCell>
        <mxCell id="lxY1VcK9E-mRwptWyb03-36" style="edgeStyle=orthogonalEdgeStyle;sketch=1;hachureGap=4;jiggle=2;curveFitting=1;orthogonalLoop=1;jettySize=auto;html=1;entryX=1;entryY=0;entryDx=0;entryDy=0;fontFamily=Architects Daughter;fontSource=https%3A%2F%2Ffonts.googleapis.com%2Fcss%3Ffamily%3DArchitects%2BDaughter;fontSize=16;curved=1;fillColor=#f8cecc;strokeColor=#b85450;" edge="1" parent="lxY1VcK9E-mRwptWyb03-19" source="lxY1VcK9E-mRwptWyb03-20" target="lxY1VcK9E-mRwptWyb03-30">
          <mxGeometry relative="1" as="geometry" />
        </mxCell>
        <mxCell id="lxY1VcK9E-mRwptWyb03-20" value="OSC" style="ellipse;whiteSpace=wrap;aspect=fixed;strokeWidth=2;fillColor=#dae8fc;strokeColor=#6c8ebf;sketch=1;curveFitting=1;jiggle=2;fontFamily=Architects Daughter;fontSource=https%3A%2F%2Ffonts.googleapis.com%2Fcss%3Ffamily%3DArchitects%2BDaughter;fontSize=18;labelPosition=center;verticalLabelPosition=middle;align=center;verticalAlign=middle;labelBackgroundColor=none;labelBorderColor=none;html=1;spacingRight=0;spacingLeft=0;spacing=2;fontStyle=0" vertex="1" parent="lxY1VcK9E-mRwptWyb03-19">
          <mxGeometry y="140" width="80" height="80" as="geometry" />
        </mxCell>
        <mxCell id="lxY1VcK9E-mRwptWyb03-21" value="LFO" style="triangle;whiteSpace=wrap;strokeWidth=2;fillColor=#ffe6cc;strokeColor=#d79b00;sketch=1;curveFitting=1;jiggle=2;shadow=0;fontFamily=Architects Daughter;fontSource=https%3A%2F%2Ffonts.googleapis.com%2Fcss%3Ffamily%3DArchitects%2BDaughter;fontSize=18;labelPosition=center;verticalLabelPosition=middle;align=center;verticalAlign=middle;labelBackgroundColor=none;labelBorderColor=none;html=1;spacingRight=0;spacingLeft=0;spacing=2;fontStyle=0" vertex="1" parent="lxY1VcK9E-mRwptWyb03-19">
          <mxGeometry x="130" y="260" width="60" height="80" as="geometry" />
        </mxCell>
        <mxCell id="lxY1VcK9E-mRwptWyb03-22" value="EG" style="triangle;whiteSpace=wrap;strokeWidth=2;fillColor=#ffe6cc;strokeColor=#d79b00;rounded=0;sketch=1;curveFitting=1;jiggle=2;fontFamily=Architects Daughter;fontSource=https%3A%2F%2Ffonts.googleapis.com%2Fcss%3Ffamily%3DArchitects%2BDaughter;fontSize=18;labelPosition=center;verticalLabelPosition=middle;align=center;verticalAlign=middle;labelBackgroundColor=none;labelBorderColor=none;html=1;spacingRight=0;spacingLeft=0;spacing=2;fontStyle=0" vertex="1" parent="lxY1VcK9E-mRwptWyb03-19">
          <mxGeometry x="290" y="260" width="60" height="80" as="geometry" />
        </mxCell>
        <mxCell id="lxY1VcK9E-mRwptWyb03-23" style="edgeStyle=orthogonalEdgeStyle;rounded=0;sketch=1;hachureGap=4;jiggle=2;curveFitting=1;orthogonalLoop=1;jettySize=auto;html=1;exitX=1;exitY=0.5;exitDx=0;exitDy=0;fontFamily=Architects Daughter;fontSource=https%3A%2F%2Ffonts.googleapis.com%2Fcss%3Ffamily%3DArchitects%2BDaughter;fontSize=16;fillColor=#f8cecc;strokeColor=#b85450;strokeWidth=2;" edge="1" parent="lxY1VcK9E-mRwptWyb03-19" source="lxY1VcK9E-mRwptWyb03-24">
          <mxGeometry relative="1" as="geometry">
            <mxPoint x="520" y="420" as="targetPoint" />
          </mxGeometry>
        </mxCell>
        <mxCell id="lxY1VcK9E-mRwptWyb03-24" value="LPG" style="triangle;whiteSpace=wrap;fillColor=#e1d5e7;strokeColor=#9673a6;strokeWidth=2;rounded=0;sketch=1;curveFitting=1;jiggle=2;fontFamily=Architects Daughter;fontSource=https%3A%2F%2Ffonts.googleapis.com%2Fcss%3Ffamily%3DArchitects%2BDaughter;fontSize=18;labelPosition=center;verticalLabelPosition=middle;align=center;verticalAlign=middle;labelBackgroundColor=none;labelBorderColor=none;html=1;spacingRight=0;spacingLeft=0;spacing=2;fontStyle=0" vertex="1" parent="lxY1VcK9E-mRwptWyb03-19">
          <mxGeometry x="370" y="380" width="60" height="80" as="geometry" />
        </mxCell>
        <mxCell id="lxY1VcK9E-mRwptWyb03-25" style="edgeStyle=orthogonalEdgeStyle;sketch=1;hachureGap=4;jiggle=2;curveFitting=1;orthogonalLoop=1;jettySize=auto;html=1;entryX=0.5;entryY=0;entryDx=0;entryDy=0;fontFamily=Architects Daughter;fontSource=https%3A%2F%2Ffonts.googleapis.com%2Fcss%3Ffamily%3DArchitects%2BDaughter;fontSize=16;fillColor=#dae8fc;strokeColor=#6c8ebf;strokeWidth=2;curved=1;" edge="1" parent="lxY1VcK9E-mRwptWyb03-19" source="lxY1VcK9E-mRwptWyb03-22" target="lxY1VcK9E-mRwptWyb03-24">
          <mxGeometry relative="1" as="geometry" />
        </mxCell>
        <mxCell id="lxY1VcK9E-mRwptWyb03-26" style="edgeStyle=orthogonalEdgeStyle;sketch=1;hachureGap=4;jiggle=2;curveFitting=1;orthogonalLoop=1;jettySize=auto;html=1;entryX=0.5;entryY=0;entryDx=0;entryDy=0;fontFamily=Architects Daughter;fontSource=https%3A%2F%2Ffonts.googleapis.com%2Fcss%3Ffamily%3DArchitects%2BDaughter;fontSize=16;fillColor=#e1d5e7;strokeColor=#9673a6;strokeWidth=2;curved=1;" edge="1" parent="lxY1VcK9E-mRwptWyb03-19" source="lxY1VcK9E-mRwptWyb03-28" target="lxY1VcK9E-mRwptWyb03-20">
          <mxGeometry relative="1" as="geometry" />
        </mxCell>
        <mxCell id="lxY1VcK9E-mRwptWyb03-27" style="edgeStyle=orthogonalEdgeStyle;sketch=1;hachureGap=4;jiggle=2;curveFitting=1;orthogonalLoop=1;jettySize=auto;html=1;fontFamily=Architects Daughter;fontSource=https%3A%2F%2Ffonts.googleapis.com%2Fcss%3Ffamily%3DArchitects%2BDaughter;fontSize=16;strokeWidth=2;fillColor=#ffe6cc;strokeColor=#d79b00;curved=1;" edge="1" parent="lxY1VcK9E-mRwptWyb03-19" source="lxY1VcK9E-mRwptWyb03-28" target="lxY1VcK9E-mRwptWyb03-22">
          <mxGeometry relative="1" as="geometry" />
        </mxCell>
        <mxCell id="lxY1VcK9E-mRwptWyb03-28" value="Seq" style="shape=process;whiteSpace=wrap;html=1;backgroundOutline=1;sketch=1;hachureGap=4;jiggle=2;curveFitting=1;fontFamily=Architects Daughter;fontSource=https%3A%2F%2Ffonts.googleapis.com%2Fcss%3Ffamily%3DArchitects%2BDaughter;fontSize=20;" vertex="1" parent="lxY1VcK9E-mRwptWyb03-19">
          <mxGeometry x="260" y="-10" width="120" height="60" as="geometry" />
        </mxCell>
        <mxCell id="lxY1VcK9E-mRwptWyb03-29" style="edgeStyle=orthogonalEdgeStyle;sketch=1;hachureGap=4;jiggle=2;curveFitting=1;orthogonalLoop=1;jettySize=auto;html=1;entryX=0;entryY=0.5;entryDx=0;entryDy=0;fontFamily=Architects Daughter;fontSource=https%3A%2F%2Ffonts.googleapis.com%2Fcss%3Ffamily%3DArchitects%2BDaughter;fontSize=16;fillColor=#f8cecc;strokeColor=#b85450;curved=1;strokeWidth=2;" edge="1" parent="lxY1VcK9E-mRwptWyb03-19" source="lxY1VcK9E-mRwptWyb03-30" target="lxY1VcK9E-mRwptWyb03-24">
          <mxGeometry relative="1" as="geometry" />
        </mxCell>
        <mxCell id="lxY1VcK9E-mRwptWyb03-30" value="Fold" style="rhombus;whiteSpace=wrap;html=1;sketch=1;hachureGap=4;jiggle=2;curveFitting=1;fontFamily=Architects Daughter;fontSource=https%3A%2F%2Ffonts.googleapis.com%2Fcss%3Ffamily%3DArchitects%2BDaughter;fontSize=20;fillColor=#e1d5e7;strokeColor=#9673a6;strokeWidth=2;" vertex="1" parent="lxY1VcK9E-mRwptWyb03-19">
          <mxGeometry x="200" y="380" width="80" height="80" as="geometry" />
        </mxCell>
        <mxCell id="lxY1VcK9E-mRwptWyb03-31" style="edgeStyle=orthogonalEdgeStyle;sketch=1;hachureGap=4;jiggle=2;curveFitting=1;orthogonalLoop=1;jettySize=auto;html=1;entryX=0;entryY=0.5;entryDx=0;entryDy=0;fontFamily=Architects Daughter;fontSource=https%3A%2F%2Ffonts.googleapis.com%2Fcss%3Ffamily%3DArchitects%2BDaughter;fontSize=16;curved=1;strokeWidth=2;fillColor=#f8cecc;strokeColor=#b85450;exitX=0.5;exitY=1;exitDx=0;exitDy=0;" edge="1" parent="lxY1VcK9E-mRwptWyb03-19" source="lxY1VcK9E-mRwptWyb03-20" target="lxY1VcK9E-mRwptWyb03-30">
          <mxGeometry relative="1" as="geometry" />
        </mxCell>
        <mxCell id="lxY1VcK9E-mRwptWyb03-32" style="edgeStyle=orthogonalEdgeStyle;sketch=1;hachureGap=4;jiggle=2;curveFitting=1;orthogonalLoop=1;jettySize=auto;html=1;exitX=1;exitY=0.5;exitDx=0;exitDy=0;entryX=0.5;entryY=0;entryDx=0;entryDy=0;fontFamily=Architects Daughter;fontSource=https%3A%2F%2Ffonts.googleapis.com%2Fcss%3Ffamily%3DArchitects%2BDaughter;fontSize=16;fillColor=#dae8fc;strokeColor=#6c8ebf;curved=1;strokeWidth=2;" edge="1" parent="lxY1VcK9E-mRwptWyb03-19" source="lxY1VcK9E-mRwptWyb03-21" target="lxY1VcK9E-mRwptWyb03-30">
          <mxGeometry relative="1" as="geometry" />
        </mxCell>
        <mxCell id="lxY1VcK9E-mRwptWyb03-78" value="" style="group" vertex="1" connectable="0" parent="1">
          <mxGeometry x="40" y="610" width="760" height="550" as="geometry" />
        </mxCell>
        <mxCell id="lxY1VcK9E-mRwptWyb03-41" value="OSC" style="ellipse;whiteSpace=wrap;aspect=fixed;strokeWidth=2;fillColor=#dae8fc;strokeColor=#6c8ebf;sketch=1;curveFitting=1;jiggle=2;fontFamily=Architects Daughter;fontSource=https%3A%2F%2Ffonts.googleapis.com%2Fcss%3Ffamily%3DArchitects%2BDaughter;fontSize=18;labelPosition=center;verticalLabelPosition=middle;align=center;verticalAlign=middle;labelBackgroundColor=none;labelBorderColor=none;html=1;spacingRight=0;spacingLeft=0;spacing=2;fontStyle=0" vertex="1" parent="lxY1VcK9E-mRwptWyb03-78">
          <mxGeometry x="240" y="230" width="80" height="80" as="geometry" />
        </mxCell>
        <mxCell id="lxY1VcK9E-mRwptWyb03-42" value="LFO" style="triangle;whiteSpace=wrap;strokeWidth=2;fillColor=#ffe6cc;strokeColor=#d79b00;sketch=1;curveFitting=1;jiggle=2;shadow=0;fontFamily=Architects Daughter;fontSource=https%3A%2F%2Ffonts.googleapis.com%2Fcss%3Ffamily%3DArchitects%2BDaughter;fontSize=18;labelPosition=center;verticalLabelPosition=middle;align=center;verticalAlign=middle;labelBackgroundColor=none;labelBorderColor=none;html=1;spacingRight=0;spacingLeft=0;spacing=2;fontStyle=0" vertex="1" parent="lxY1VcK9E-mRwptWyb03-78">
          <mxGeometry x="370" y="390" width="60" height="80" as="geometry" />
        </mxCell>
        <mxCell id="lxY1VcK9E-mRwptWyb03-43" value="EG" style="triangle;whiteSpace=wrap;strokeWidth=2;fillColor=#ffe6cc;strokeColor=#d79b00;rounded=0;sketch=1;curveFitting=1;jiggle=2;fontFamily=Architects Daughter;fontSource=https%3A%2F%2Ffonts.googleapis.com%2Fcss%3Ffamily%3DArchitects%2BDaughter;fontSize=18;labelPosition=center;verticalLabelPosition=middle;align=center;verticalAlign=middle;labelBackgroundColor=none;labelBorderColor=none;html=1;spacingRight=0;spacingLeft=0;spacing=2;fontStyle=0" vertex="1" parent="lxY1VcK9E-mRwptWyb03-78">
          <mxGeometry x="530" y="270" width="60" height="80" as="geometry" />
        </mxCell>
        <mxCell id="lxY1VcK9E-mRwptWyb03-44" style="edgeStyle=orthogonalEdgeStyle;rounded=0;sketch=1;hachureGap=4;jiggle=2;curveFitting=1;orthogonalLoop=1;jettySize=auto;html=1;exitX=1;exitY=0.5;exitDx=0;exitDy=0;fontFamily=Architects Daughter;fontSource=https%3A%2F%2Ffonts.googleapis.com%2Fcss%3Ffamily%3DArchitects%2BDaughter;fontSize=16;fillColor=#f8cecc;strokeColor=#b85450;strokeWidth=2;" edge="1" parent="lxY1VcK9E-mRwptWyb03-78" source="lxY1VcK9E-mRwptWyb03-45">
          <mxGeometry relative="1" as="geometry">
            <mxPoint x="760" y="510" as="targetPoint" />
          </mxGeometry>
        </mxCell>
        <mxCell id="lxY1VcK9E-mRwptWyb03-45" value="LPG" style="triangle;whiteSpace=wrap;fillColor=#e1d5e7;strokeColor=#9673a6;strokeWidth=2;rounded=0;sketch=1;curveFitting=1;jiggle=2;fontFamily=Architects Daughter;fontSource=https%3A%2F%2Ffonts.googleapis.com%2Fcss%3Ffamily%3DArchitects%2BDaughter;fontSize=18;labelPosition=center;verticalLabelPosition=middle;align=center;verticalAlign=middle;labelBackgroundColor=none;labelBorderColor=none;html=1;spacingRight=0;spacingLeft=0;spacing=2;fontStyle=0" vertex="1" parent="lxY1VcK9E-mRwptWyb03-78">
          <mxGeometry x="610" y="470" width="60" height="80" as="geometry" />
        </mxCell>
        <mxCell id="lxY1VcK9E-mRwptWyb03-46" style="edgeStyle=orthogonalEdgeStyle;sketch=1;hachureGap=4;jiggle=2;curveFitting=1;orthogonalLoop=1;jettySize=auto;html=1;entryX=0.5;entryY=0;entryDx=0;entryDy=0;fontFamily=Architects Daughter;fontSource=https%3A%2F%2Ffonts.googleapis.com%2Fcss%3Ffamily%3DArchitects%2BDaughter;fontSize=16;fillColor=#dae8fc;strokeColor=#6c8ebf;strokeWidth=2;curved=1;" edge="1" parent="lxY1VcK9E-mRwptWyb03-78" source="lxY1VcK9E-mRwptWyb03-43" target="lxY1VcK9E-mRwptWyb03-45">
          <mxGeometry relative="1" as="geometry" />
        </mxCell>
        <mxCell id="lxY1VcK9E-mRwptWyb03-48" style="edgeStyle=orthogonalEdgeStyle;sketch=1;hachureGap=4;jiggle=2;curveFitting=1;orthogonalLoop=1;jettySize=auto;html=1;fontFamily=Architects Daughter;fontSource=https%3A%2F%2Ffonts.googleapis.com%2Fcss%3Ffamily%3DArchitects%2BDaughter;fontSize=16;strokeWidth=2;fillColor=#ffe6cc;strokeColor=#d79b00;curved=1;" edge="1" parent="lxY1VcK9E-mRwptWyb03-78" source="lxY1VcK9E-mRwptWyb03-49" target="lxY1VcK9E-mRwptWyb03-43">
          <mxGeometry relative="1" as="geometry" />
        </mxCell>
        <mxCell id="lxY1VcK9E-mRwptWyb03-49" value="Seq" style="shape=process;whiteSpace=wrap;html=1;backgroundOutline=1;sketch=1;hachureGap=4;jiggle=2;curveFitting=1;fontFamily=Architects Daughter;fontSource=https%3A%2F%2Ffonts.googleapis.com%2Fcss%3Ffamily%3DArchitects%2BDaughter;fontSize=20;" vertex="1" parent="lxY1VcK9E-mRwptWyb03-78">
          <mxGeometry x="500" width="120" height="60" as="geometry" />
        </mxCell>
        <mxCell id="lxY1VcK9E-mRwptWyb03-50" style="edgeStyle=orthogonalEdgeStyle;sketch=1;hachureGap=4;jiggle=2;curveFitting=1;orthogonalLoop=1;jettySize=auto;html=1;entryX=0;entryY=0.5;entryDx=0;entryDy=0;fontFamily=Architects Daughter;fontSource=https%3A%2F%2Ffonts.googleapis.com%2Fcss%3Ffamily%3DArchitects%2BDaughter;fontSize=16;fillColor=#f8cecc;strokeColor=#b85450;curved=1;strokeWidth=2;" edge="1" parent="lxY1VcK9E-mRwptWyb03-78" source="lxY1VcK9E-mRwptWyb03-51" target="lxY1VcK9E-mRwptWyb03-45">
          <mxGeometry relative="1" as="geometry" />
        </mxCell>
        <mxCell id="lxY1VcK9E-mRwptWyb03-51" value="Fold" style="rhombus;whiteSpace=wrap;html=1;sketch=1;hachureGap=4;jiggle=2;curveFitting=1;fontFamily=Architects Daughter;fontSource=https%3A%2F%2Ffonts.googleapis.com%2Fcss%3Ffamily%3DArchitects%2BDaughter;fontSize=20;fillColor=#e1d5e7;strokeColor=#9673a6;strokeWidth=2;" vertex="1" parent="lxY1VcK9E-mRwptWyb03-78">
          <mxGeometry x="440" y="470" width="80" height="80" as="geometry" />
        </mxCell>
        <mxCell id="lxY1VcK9E-mRwptWyb03-52" style="edgeStyle=orthogonalEdgeStyle;sketch=1;hachureGap=4;jiggle=2;curveFitting=1;orthogonalLoop=1;jettySize=auto;html=1;entryX=0;entryY=0.5;entryDx=0;entryDy=0;fontFamily=Architects Daughter;fontSource=https%3A%2F%2Ffonts.googleapis.com%2Fcss%3Ffamily%3DArchitects%2BDaughter;fontSize=16;curved=1;strokeWidth=2;fillColor=#f8cecc;strokeColor=#b85450;exitX=0.5;exitY=1;exitDx=0;exitDy=0;" edge="1" parent="lxY1VcK9E-mRwptWyb03-78" source="lxY1VcK9E-mRwptWyb03-41" target="lxY1VcK9E-mRwptWyb03-51">
          <mxGeometry relative="1" as="geometry" />
        </mxCell>
        <mxCell id="lxY1VcK9E-mRwptWyb03-53" style="edgeStyle=orthogonalEdgeStyle;sketch=1;hachureGap=4;jiggle=2;curveFitting=1;orthogonalLoop=1;jettySize=auto;html=1;exitX=1;exitY=0.5;exitDx=0;exitDy=0;entryX=0;entryY=0;entryDx=0;entryDy=0;fontFamily=Architects Daughter;fontSource=https%3A%2F%2Ffonts.googleapis.com%2Fcss%3Ffamily%3DArchitects%2BDaughter;fontSize=16;fillColor=#dae8fc;strokeColor=#6c8ebf;curved=1;strokeWidth=2;" edge="1" parent="lxY1VcK9E-mRwptWyb03-78" source="lxY1VcK9E-mRwptWyb03-42" target="lxY1VcK9E-mRwptWyb03-51">
          <mxGeometry relative="1" as="geometry">
            <Array as="points">
              <mxPoint x="460" y="430" />
            </Array>
          </mxGeometry>
        </mxCell>
        <mxCell id="lxY1VcK9E-mRwptWyb03-54" value="OSC" style="ellipse;whiteSpace=wrap;aspect=fixed;strokeWidth=2;fillColor=#dae8fc;strokeColor=#6c8ebf;sketch=1;curveFitting=1;jiggle=2;fontFamily=Architects Daughter;fontSource=https%3A%2F%2Ffonts.googleapis.com%2Fcss%3Ffamily%3DArchitects%2BDaughter;fontSize=18;labelPosition=center;verticalLabelPosition=middle;align=center;verticalAlign=middle;labelBackgroundColor=none;labelBorderColor=none;html=1;spacingRight=0;spacingLeft=0;spacing=2;fontStyle=0" vertex="1" parent="lxY1VcK9E-mRwptWyb03-78">
          <mxGeometry y="230" width="80" height="80" as="geometry" />
        </mxCell>
        <mxCell id="lxY1VcK9E-mRwptWyb03-62" value="FM" style="edgeStyle=orthogonalEdgeStyle;sketch=1;hachureGap=4;jiggle=2;curveFitting=1;orthogonalLoop=1;jettySize=auto;html=1;exitX=1;exitY=0.5;exitDx=0;exitDy=0;entryX=0;entryY=0.5;entryDx=0;entryDy=0;fontFamily=Architects Daughter;fontSource=https%3A%2F%2Ffonts.googleapis.com%2Fcss%3Ffamily%3DArchitects%2BDaughter;fontSize=16;fillColor=#f8cecc;strokeColor=#b85450;strokeWidth=2;curved=1;verticalAlign=bottom;" edge="1" parent="lxY1VcK9E-mRwptWyb03-78" source="lxY1VcK9E-mRwptWyb03-55" target="lxY1VcK9E-mRwptWyb03-41">
          <mxGeometry relative="1" as="geometry" />
        </mxCell>
        <mxCell id="lxY1VcK9E-mRwptWyb03-55" value="VCA" style="triangle;whiteSpace=wrap;fillColor=#e1d5e7;strokeColor=#9673a6;strokeWidth=2;rounded=0;sketch=1;curveFitting=1;jiggle=2;fontFamily=Architects Daughter;fontSource=https%3A%2F%2Ffonts.googleapis.com%2Fcss%3Ffamily%3DArchitects%2BDaughter;fontSize=18;labelPosition=center;verticalLabelPosition=middle;align=center;verticalAlign=middle;labelBackgroundColor=none;labelBorderColor=none;html=1;spacingRight=0;spacingLeft=0;spacing=2;fontStyle=0" vertex="1" parent="lxY1VcK9E-mRwptWyb03-78">
          <mxGeometry x="130" y="230" width="60" height="80" as="geometry" />
        </mxCell>
        <mxCell id="lxY1VcK9E-mRwptWyb03-58" style="edgeStyle=orthogonalEdgeStyle;sketch=1;hachureGap=4;jiggle=2;curveFitting=1;orthogonalLoop=1;jettySize=auto;html=1;exitX=1;exitY=0.5;exitDx=0;exitDy=0;entryX=0;entryY=0.5;entryDx=0;entryDy=0;fontFamily=Architects Daughter;fontSource=https%3A%2F%2Ffonts.googleapis.com%2Fcss%3Ffamily%3DArchitects%2BDaughter;fontSize=16;fillColor=#f8cecc;strokeColor=#b85450;strokeWidth=2;curved=1;" edge="1" parent="lxY1VcK9E-mRwptWyb03-78" source="lxY1VcK9E-mRwptWyb03-54" target="lxY1VcK9E-mRwptWyb03-55">
          <mxGeometry relative="1" as="geometry" />
        </mxCell>
        <mxCell id="lxY1VcK9E-mRwptWyb03-61" style="edgeStyle=orthogonalEdgeStyle;sketch=1;hachureGap=4;jiggle=2;curveFitting=1;orthogonalLoop=1;jettySize=auto;html=1;entryX=0.5;entryY=0;entryDx=0;entryDy=0;fontFamily=Architects Daughter;fontSource=https%3A%2F%2Ffonts.googleapis.com%2Fcss%3Ffamily%3DArchitects%2BDaughter;fontSize=16;fillColor=#dae8fc;strokeColor=#6c8ebf;strokeWidth=2;curved=1;" edge="1" parent="lxY1VcK9E-mRwptWyb03-78" source="lxY1VcK9E-mRwptWyb03-59" target="lxY1VcK9E-mRwptWyb03-55">
          <mxGeometry relative="1" as="geometry" />
        </mxCell>
        <mxCell id="lxY1VcK9E-mRwptWyb03-59" value="EG" style="triangle;whiteSpace=wrap;strokeWidth=2;fillColor=#ffe6cc;strokeColor=#d79b00;rounded=0;sketch=1;curveFitting=1;jiggle=2;fontFamily=Architects Daughter;fontSource=https%3A%2F%2Ffonts.googleapis.com%2Fcss%3Ffamily%3DArchitects%2BDaughter;fontSize=18;labelPosition=center;verticalLabelPosition=middle;align=center;verticalAlign=middle;labelBackgroundColor=none;labelBorderColor=none;html=1;spacingRight=0;spacingLeft=0;spacing=2;fontStyle=0" vertex="1" parent="lxY1VcK9E-mRwptWyb03-78">
          <mxGeometry x="10" y="110" width="60" height="80" as="geometry" />
        </mxCell>
        <mxCell id="lxY1VcK9E-mRwptWyb03-63" style="edgeStyle=orthogonalEdgeStyle;sketch=1;hachureGap=4;jiggle=2;curveFitting=1;orthogonalLoop=1;jettySize=auto;html=1;exitX=0.5;exitY=1;exitDx=0;exitDy=0;entryX=0.5;entryY=0;entryDx=0;entryDy=0;fontFamily=Architects Daughter;fontSource=https%3A%2F%2Ffonts.googleapis.com%2Fcss%3Ffamily%3DArchitects%2BDaughter;fontSize=16;fillColor=#ffe6cc;strokeColor=#d79b00;curved=1;strokeWidth=2;" edge="1" parent="lxY1VcK9E-mRwptWyb03-78" source="lxY1VcK9E-mRwptWyb03-49" target="lxY1VcK9E-mRwptWyb03-59">
          <mxGeometry relative="1" as="geometry" />
        </mxCell>
        <mxCell id="lxY1VcK9E-mRwptWyb03-66" style="edgeStyle=orthogonalEdgeStyle;sketch=1;hachureGap=4;jiggle=2;curveFitting=1;orthogonalLoop=1;jettySize=auto;html=1;exitX=1;exitY=0.5;exitDx=0;exitDy=0;fontFamily=Architects Daughter;fontSource=https%3A%2F%2Ffonts.googleapis.com%2Fcss%3Ffamily%3DArchitects%2BDaughter;fontSize=16;curved=1;fillColor=#dae8fc;strokeColor=#6c8ebf;entryX=1;entryY=0;entryDx=0;entryDy=0;strokeWidth=2;" edge="1" parent="lxY1VcK9E-mRwptWyb03-78" source="lxY1VcK9E-mRwptWyb03-60" target="lxY1VcK9E-mRwptWyb03-51">
          <mxGeometry relative="1" as="geometry">
            <mxPoint x="480" y="390" as="targetPoint" />
          </mxGeometry>
        </mxCell>
        <mxCell id="lxY1VcK9E-mRwptWyb03-60" value="EG" style="triangle;whiteSpace=wrap;strokeWidth=2;fillColor=#ffe6cc;strokeColor=#d79b00;rounded=0;sketch=1;curveFitting=1;jiggle=2;fontFamily=Architects Daughter;fontSource=https%3A%2F%2Ffonts.googleapis.com%2Fcss%3Ffamily%3DArchitects%2BDaughter;fontSize=18;labelPosition=center;verticalLabelPosition=middle;align=center;verticalAlign=middle;labelBackgroundColor=none;labelBorderColor=none;html=1;spacingRight=0;spacingLeft=0;spacing=2;fontStyle=0" vertex="1" parent="lxY1VcK9E-mRwptWyb03-78">
          <mxGeometry x="370" y="150" width="60" height="80" as="geometry" />
        </mxCell>
        <mxCell id="lxY1VcK9E-mRwptWyb03-65" style="edgeStyle=orthogonalEdgeStyle;rounded=0;sketch=1;hachureGap=4;jiggle=2;curveFitting=1;orthogonalLoop=1;jettySize=auto;html=1;exitX=0;exitY=0.5;exitDx=0;exitDy=0;entryX=0.033;entryY=0.363;entryDx=0;entryDy=0;entryPerimeter=0;fontFamily=Architects Daughter;fontSource=https%3A%2F%2Ffonts.googleapis.com%2Fcss%3Ffamily%3DArchitects%2BDaughter;fontSize=16;" edge="1" parent="lxY1VcK9E-mRwptWyb03-78" source="lxY1VcK9E-mRwptWyb03-60" target="lxY1VcK9E-mRwptWyb03-60">
          <mxGeometry relative="1" as="geometry" />
        </mxCell>
        <mxCell id="lxY1VcK9E-mRwptWyb03-69" style="edgeStyle=orthogonalEdgeStyle;sketch=1;hachureGap=4;jiggle=2;curveFitting=1;orthogonalLoop=1;jettySize=auto;html=1;entryX=0.5;entryY=0;entryDx=0;entryDy=0;fontFamily=Architects Daughter;fontSource=https%3A%2F%2Ffonts.googleapis.com%2Fcss%3Ffamily%3DArchitects%2BDaughter;fontSize=16;curved=1;strokeWidth=2;fillColor=#dae8fc;strokeColor=#6c8ebf;" edge="1" parent="lxY1VcK9E-mRwptWyb03-78" source="lxY1VcK9E-mRwptWyb03-68" target="lxY1VcK9E-mRwptWyb03-51">
          <mxGeometry relative="1" as="geometry" />
        </mxCell>
        <mxCell id="lxY1VcK9E-mRwptWyb03-68" value="EG" style="triangle;whiteSpace=wrap;strokeWidth=2;fillColor=#ffe6cc;strokeColor=#d79b00;rounded=0;sketch=1;curveFitting=1;jiggle=2;fontFamily=Architects Daughter;fontSource=https%3A%2F%2Ffonts.googleapis.com%2Fcss%3Ffamily%3DArchitects%2BDaughter;fontSize=18;labelPosition=center;verticalLabelPosition=middle;align=center;verticalAlign=middle;labelBackgroundColor=none;labelBorderColor=none;html=1;spacingRight=0;spacingLeft=0;spacing=2;fontStyle=0" vertex="1" parent="lxY1VcK9E-mRwptWyb03-78">
          <mxGeometry x="370" y="270" width="60" height="80" as="geometry" />
        </mxCell>
        <mxCell id="lxY1VcK9E-mRwptWyb03-64" style="edgeStyle=orthogonalEdgeStyle;sketch=1;hachureGap=4;jiggle=2;curveFitting=1;orthogonalLoop=1;jettySize=auto;html=1;exitX=0.5;exitY=1;exitDx=0;exitDy=0;fontFamily=Architects Daughter;fontSource=https%3A%2F%2Ffonts.googleapis.com%2Fcss%3Ffamily%3DArchitects%2BDaughter;fontSize=16;curved=1;strokeWidth=2;fillColor=#ffe6cc;strokeColor=#d79b00;" edge="1" parent="lxY1VcK9E-mRwptWyb03-78" source="lxY1VcK9E-mRwptWyb03-49" target="lxY1VcK9E-mRwptWyb03-60">
          <mxGeometry relative="1" as="geometry">
            <Array as="points">
              <mxPoint x="560" y="120" />
              <mxPoint x="400" y="120" />
            </Array>
          </mxGeometry>
        </mxCell>
        <mxCell id="lxY1VcK9E-mRwptWyb03-70" style="edgeStyle=orthogonalEdgeStyle;sketch=1;hachureGap=4;jiggle=2;curveFitting=1;orthogonalLoop=1;jettySize=auto;html=1;fontFamily=Architects Daughter;fontSource=https%3A%2F%2Ffonts.googleapis.com%2Fcss%3Ffamily%3DArchitects%2BDaughter;fontSize=16;fillColor=#ffe6cc;strokeColor=#d79b00;curved=1;strokeWidth=2;exitX=0.5;exitY=1;exitDx=0;exitDy=0;" edge="1" parent="lxY1VcK9E-mRwptWyb03-78" source="lxY1VcK9E-mRwptWyb03-49" target="lxY1VcK9E-mRwptWyb03-68">
          <mxGeometry relative="1" as="geometry">
            <Array as="points">
              <mxPoint x="560" y="220" />
              <mxPoint x="400" y="220" />
            </Array>
          </mxGeometry>
        </mxCell>
        <mxCell id="lxY1VcK9E-mRwptWyb03-126" value="" style="group" vertex="1" connectable="0" parent="1">
          <mxGeometry x="40" y="1210" width="680" height="550" as="geometry" />
        </mxCell>
        <mxCell id="lxY1VcK9E-mRwptWyb03-80" value="OSC" style="ellipse;whiteSpace=wrap;aspect=fixed;strokeWidth=2;fillColor=#dae8fc;strokeColor=#6c8ebf;sketch=1;curveFitting=1;jiggle=2;fontFamily=Architects Daughter;fontSource=https%3A%2F%2Ffonts.googleapis.com%2Fcss%3Ffamily%3DArchitects%2BDaughter;fontSize=18;labelPosition=center;verticalLabelPosition=middle;align=center;verticalAlign=middle;labelBackgroundColor=none;labelBorderColor=none;html=1;spacingRight=0;spacingLeft=0;spacing=2;fontStyle=0" vertex="1" parent="lxY1VcK9E-mRwptWyb03-126">
          <mxGeometry x="240" y="230" width="80" height="80" as="geometry" />
        </mxCell>
        <mxCell id="lxY1VcK9E-mRwptWyb03-107" style="edgeStyle=orthogonalEdgeStyle;sketch=1;hachureGap=4;jiggle=2;curveFitting=1;orthogonalLoop=1;jettySize=auto;html=1;entryX=0.5;entryY=0;entryDx=0;entryDy=0;fontFamily=Architects Daughter;fontSource=https%3A%2F%2Ffonts.googleapis.com%2Fcss%3Ffamily%3DArchitects%2BDaughter;fontSize=16;fillColor=#e1d5e7;strokeColor=#9673a6;strokeWidth=2;curved=1;" edge="1" parent="lxY1VcK9E-mRwptWyb03-126" source="lxY1VcK9E-mRwptWyb03-87" target="lxY1VcK9E-mRwptWyb03-80">
          <mxGeometry relative="1" as="geometry" />
        </mxCell>
        <mxCell id="lxY1VcK9E-mRwptWyb03-87" value="Seq" style="shape=process;whiteSpace=wrap;html=1;backgroundOutline=1;sketch=1;hachureGap=4;jiggle=2;curveFitting=1;fontFamily=Architects Daughter;fontSource=https%3A%2F%2Ffonts.googleapis.com%2Fcss%3Ffamily%3DArchitects%2BDaughter;fontSize=20;movable=1;resizable=1;rotatable=1;deletable=1;editable=1;locked=0;connectable=1;" vertex="1" parent="lxY1VcK9E-mRwptWyb03-126">
          <mxGeometry x="500" width="120" height="60" as="geometry" />
        </mxCell>
        <mxCell id="lxY1VcK9E-mRwptWyb03-88" style="edgeStyle=orthogonalEdgeStyle;sketch=1;hachureGap=4;jiggle=2;curveFitting=1;orthogonalLoop=1;jettySize=auto;html=1;entryX=0;entryY=0.5;entryDx=0;entryDy=0;fontFamily=Architects Daughter;fontSource=https%3A%2F%2Ffonts.googleapis.com%2Fcss%3Ffamily%3DArchitects%2BDaughter;fontSize=16;fillColor=#f8cecc;strokeColor=#b85450;curved=1;strokeWidth=2;" edge="1" parent="lxY1VcK9E-mRwptWyb03-126" source="lxY1VcK9E-mRwptWyb03-89">
          <mxGeometry relative="1" as="geometry">
            <mxPoint x="610" y="510" as="targetPoint" />
          </mxGeometry>
        </mxCell>
        <mxCell id="lxY1VcK9E-mRwptWyb03-89" value="Fold" style="rhombus;whiteSpace=wrap;html=1;sketch=1;hachureGap=4;jiggle=2;curveFitting=1;fontFamily=Architects Daughter;fontSource=https%3A%2F%2Ffonts.googleapis.com%2Fcss%3Ffamily%3DArchitects%2BDaughter;fontSize=20;fillColor=#e1d5e7;strokeColor=#9673a6;strokeWidth=2;" vertex="1" parent="lxY1VcK9E-mRwptWyb03-126">
          <mxGeometry x="440" y="470" width="80" height="80" as="geometry" />
        </mxCell>
        <mxCell id="lxY1VcK9E-mRwptWyb03-90" style="edgeStyle=orthogonalEdgeStyle;sketch=1;hachureGap=4;jiggle=2;curveFitting=1;orthogonalLoop=1;jettySize=auto;html=1;entryX=0;entryY=0.5;entryDx=0;entryDy=0;fontFamily=Architects Daughter;fontSource=https%3A%2F%2Ffonts.googleapis.com%2Fcss%3Ffamily%3DArchitects%2BDaughter;fontSize=16;curved=1;strokeWidth=2;fillColor=#f8cecc;strokeColor=#b85450;exitX=0.5;exitY=1;exitDx=0;exitDy=0;" edge="1" parent="lxY1VcK9E-mRwptWyb03-126" source="lxY1VcK9E-mRwptWyb03-80" target="lxY1VcK9E-mRwptWyb03-89">
          <mxGeometry relative="1" as="geometry" />
        </mxCell>
        <mxCell id="lxY1VcK9E-mRwptWyb03-101" style="edgeStyle=orthogonalEdgeStyle;rounded=0;sketch=1;hachureGap=4;jiggle=2;curveFitting=1;orthogonalLoop=1;jettySize=auto;html=1;exitX=0;exitY=0.5;exitDx=0;exitDy=0;entryX=0.033;entryY=0.363;entryDx=0;entryDy=0;entryPerimeter=0;fontFamily=Architects Daughter;fontSource=https%3A%2F%2Ffonts.googleapis.com%2Fcss%3Ffamily%3DArchitects%2BDaughter;fontSize=16;" edge="1" parent="lxY1VcK9E-mRwptWyb03-126">
          <mxGeometry relative="1" as="geometry">
            <mxPoint x="370" y="190" as="sourcePoint" />
            <mxPoint x="371.98" y="179.03999999999996" as="targetPoint" />
          </mxGeometry>
        </mxCell>
        <mxCell id="lxY1VcK9E-mRwptWyb03-103" value="EG" style="triangle;whiteSpace=wrap;strokeWidth=2;fillColor=#ffe6cc;strokeColor=#d79b00;rounded=0;sketch=1;curveFitting=1;jiggle=2;fontFamily=Architects Daughter;fontSource=https%3A%2F%2Ffonts.googleapis.com%2Fcss%3Ffamily%3DArchitects%2BDaughter;fontSize=18;labelPosition=center;verticalLabelPosition=middle;align=center;verticalAlign=middle;labelBackgroundColor=none;labelBorderColor=none;html=1;spacingRight=0;spacingLeft=0;spacing=2;fontStyle=0" vertex="1" parent="lxY1VcK9E-mRwptWyb03-126">
          <mxGeometry x="450" y="230" width="60" height="80" as="geometry" />
        </mxCell>
        <mxCell id="lxY1VcK9E-mRwptWyb03-125" style="edgeStyle=orthogonalEdgeStyle;sketch=1;hachureGap=4;jiggle=2;curveFitting=1;orthogonalLoop=1;jettySize=auto;html=1;exitX=0.5;exitY=1;exitDx=0;exitDy=0;entryX=0.5;entryY=0;entryDx=0;entryDy=0;fontFamily=Architects Daughter;fontSource=https%3A%2F%2Ffonts.googleapis.com%2Fcss%3Ffamily%3DArchitects%2BDaughter;fontSize=16;strokeColor=#d79b00;curved=1;fillColor=#ffe6cc;strokeWidth=2;" edge="1" parent="lxY1VcK9E-mRwptWyb03-126" source="lxY1VcK9E-mRwptWyb03-87" target="lxY1VcK9E-mRwptWyb03-103">
          <mxGeometry relative="1" as="geometry">
            <Array as="points">
              <mxPoint x="560" y="220" />
              <mxPoint x="480" y="220" />
            </Array>
          </mxGeometry>
        </mxCell>
        <mxCell id="lxY1VcK9E-mRwptWyb03-110" value="OSC" style="ellipse;whiteSpace=wrap;aspect=fixed;strokeWidth=2;fillColor=#dae8fc;strokeColor=#6c8ebf;sketch=1;curveFitting=1;jiggle=2;fontFamily=Architects Daughter;fontSource=https%3A%2F%2Ffonts.googleapis.com%2Fcss%3Ffamily%3DArchitects%2BDaughter;fontSize=18;labelPosition=center;verticalLabelPosition=middle;align=center;verticalAlign=middle;labelBackgroundColor=none;labelBorderColor=none;html=1;spacingRight=0;spacingLeft=0;spacing=2;fontStyle=0" vertex="1" parent="lxY1VcK9E-mRwptWyb03-126">
          <mxGeometry y="230" width="80" height="80" as="geometry" />
        </mxCell>
        <mxCell id="lxY1VcK9E-mRwptWyb03-111" value="FM" style="edgeStyle=orthogonalEdgeStyle;sketch=1;hachureGap=4;jiggle=2;curveFitting=1;orthogonalLoop=1;jettySize=auto;html=1;exitX=1;exitY=0.5;exitDx=0;exitDy=0;entryX=0;entryY=0.5;entryDx=0;entryDy=0;fontFamily=Architects Daughter;fontSource=https%3A%2F%2Ffonts.googleapis.com%2Fcss%3Ffamily%3DArchitects%2BDaughter;fontSize=16;fillColor=#f8cecc;strokeColor=#b85450;strokeWidth=2;curved=1;verticalAlign=bottom;" edge="1" parent="lxY1VcK9E-mRwptWyb03-126" source="lxY1VcK9E-mRwptWyb03-112" target="lxY1VcK9E-mRwptWyb03-80">
          <mxGeometry relative="1" as="geometry">
            <mxPoint x="240" y="270" as="targetPoint" />
          </mxGeometry>
        </mxCell>
        <mxCell id="lxY1VcK9E-mRwptWyb03-112" value="VCA" style="triangle;whiteSpace=wrap;fillColor=#e1d5e7;strokeColor=#9673a6;strokeWidth=2;rounded=0;sketch=1;curveFitting=1;jiggle=2;fontFamily=Architects Daughter;fontSource=https%3A%2F%2Ffonts.googleapis.com%2Fcss%3Ffamily%3DArchitects%2BDaughter;fontSize=18;labelPosition=center;verticalLabelPosition=middle;align=center;verticalAlign=middle;labelBackgroundColor=none;labelBorderColor=none;html=1;spacingRight=0;spacingLeft=0;spacing=2;fontStyle=0" vertex="1" parent="lxY1VcK9E-mRwptWyb03-126">
          <mxGeometry x="130" y="230" width="60" height="80" as="geometry" />
        </mxCell>
        <mxCell id="lxY1VcK9E-mRwptWyb03-113" style="edgeStyle=orthogonalEdgeStyle;sketch=1;hachureGap=4;jiggle=2;curveFitting=1;orthogonalLoop=1;jettySize=auto;html=1;exitX=1;exitY=0.5;exitDx=0;exitDy=0;entryX=0;entryY=0.5;entryDx=0;entryDy=0;fontFamily=Architects Daughter;fontSource=https%3A%2F%2Ffonts.googleapis.com%2Fcss%3Ffamily%3DArchitects%2BDaughter;fontSize=16;fillColor=#f8cecc;strokeColor=#b85450;strokeWidth=2;curved=1;" edge="1" parent="lxY1VcK9E-mRwptWyb03-126" source="lxY1VcK9E-mRwptWyb03-110" target="lxY1VcK9E-mRwptWyb03-112">
          <mxGeometry relative="1" as="geometry" />
        </mxCell>
        <mxCell id="lxY1VcK9E-mRwptWyb03-114" style="edgeStyle=orthogonalEdgeStyle;sketch=1;hachureGap=4;jiggle=2;curveFitting=1;orthogonalLoop=1;jettySize=auto;html=1;entryX=0.5;entryY=0;entryDx=0;entryDy=0;fontFamily=Architects Daughter;fontSource=https%3A%2F%2Ffonts.googleapis.com%2Fcss%3Ffamily%3DArchitects%2BDaughter;fontSize=16;fillColor=#dae8fc;strokeColor=#6c8ebf;strokeWidth=2;curved=1;" edge="1" parent="lxY1VcK9E-mRwptWyb03-126" source="lxY1VcK9E-mRwptWyb03-115" target="lxY1VcK9E-mRwptWyb03-112">
          <mxGeometry relative="1" as="geometry" />
        </mxCell>
        <mxCell id="lxY1VcK9E-mRwptWyb03-117" style="edgeStyle=orthogonalEdgeStyle;sketch=1;hachureGap=4;jiggle=2;curveFitting=1;orthogonalLoop=1;jettySize=auto;html=1;entryX=0;entryY=0;entryDx=0;entryDy=0;fontFamily=Architects Daughter;fontSource=https%3A%2F%2Ffonts.googleapis.com%2Fcss%3Ffamily%3DArchitects%2BDaughter;fontSize=16;fillColor=#dae8fc;strokeColor=#6c8ebf;curved=1;strokeWidth=2;" edge="1" parent="lxY1VcK9E-mRwptWyb03-126" source="lxY1VcK9E-mRwptWyb03-115" target="lxY1VcK9E-mRwptWyb03-89">
          <mxGeometry relative="1" as="geometry">
            <Array as="points">
              <mxPoint x="460" y="150" />
            </Array>
          </mxGeometry>
        </mxCell>
        <mxCell id="lxY1VcK9E-mRwptWyb03-115" value="EG" style="triangle;whiteSpace=wrap;strokeWidth=2;fillColor=#ffe6cc;strokeColor=#d79b00;rounded=0;sketch=1;curveFitting=1;jiggle=2;fontFamily=Architects Daughter;fontSource=https%3A%2F%2Ffonts.googleapis.com%2Fcss%3Ffamily%3DArchitects%2BDaughter;fontSize=18;labelPosition=center;verticalLabelPosition=middle;align=center;verticalAlign=middle;labelBackgroundColor=none;labelBorderColor=none;html=1;spacingRight=0;spacingLeft=0;spacing=2;fontStyle=0" vertex="1" parent="lxY1VcK9E-mRwptWyb03-126">
          <mxGeometry x="10" y="110" width="60" height="80" as="geometry" />
        </mxCell>
        <mxCell id="lxY1VcK9E-mRwptWyb03-116" style="edgeStyle=orthogonalEdgeStyle;sketch=1;hachureGap=4;jiggle=2;curveFitting=1;orthogonalLoop=1;jettySize=auto;html=1;exitX=0.5;exitY=1;exitDx=0;exitDy=0;entryX=0.5;entryY=0;entryDx=0;entryDy=0;fontFamily=Architects Daughter;fontSource=https%3A%2F%2Ffonts.googleapis.com%2Fcss%3Ffamily%3DArchitects%2BDaughter;fontSize=16;fillColor=#ffe6cc;strokeColor=#d79b00;curved=1;strokeWidth=2;" edge="1" parent="lxY1VcK9E-mRwptWyb03-126" source="lxY1VcK9E-mRwptWyb03-87" target="lxY1VcK9E-mRwptWyb03-115">
          <mxGeometry relative="1" as="geometry" />
        </mxCell>
        <mxCell id="lxY1VcK9E-mRwptWyb03-120" style="edgeStyle=orthogonalEdgeStyle;sketch=1;hachureGap=4;jiggle=2;curveFitting=1;orthogonalLoop=1;jettySize=auto;html=1;entryX=0.5;entryY=0;entryDx=0;entryDy=0;fontFamily=Architects Daughter;fontSource=https%3A%2F%2Ffonts.googleapis.com%2Fcss%3Ffamily%3DArchitects%2BDaughter;fontSize=16;fillColor=#dae8fc;strokeColor=#6c8ebf;curved=1;strokeWidth=2;exitX=0.5;exitY=1;exitDx=0;exitDy=0;" edge="1" parent="lxY1VcK9E-mRwptWyb03-126" source="lxY1VcK9E-mRwptWyb03-119" target="lxY1VcK9E-mRwptWyb03-89">
          <mxGeometry relative="1" as="geometry" />
        </mxCell>
        <mxCell id="lxY1VcK9E-mRwptWyb03-119" value="Mix" style="rhombus;whiteSpace=wrap;html=1;sketch=1;hachureGap=4;jiggle=2;curveFitting=1;fontFamily=Architects Daughter;fontSource=https%3A%2F%2Ffonts.googleapis.com%2Fcss%3Ffamily%3DArchitects%2BDaughter;fontSize=20;fillColor=#ffe6cc;strokeColor=#d79b00;strokeWidth=2;" vertex="1" parent="lxY1VcK9E-mRwptWyb03-126">
          <mxGeometry x="600" y="310" width="80" height="80" as="geometry" />
        </mxCell>
        <mxCell id="lxY1VcK9E-mRwptWyb03-123" style="edgeStyle=orthogonalEdgeStyle;sketch=1;hachureGap=4;jiggle=2;curveFitting=1;orthogonalLoop=1;jettySize=auto;html=1;entryX=0.5;entryY=0;entryDx=0;entryDy=0;fontFamily=Architects Daughter;fontSource=https%3A%2F%2Ffonts.googleapis.com%2Fcss%3Ffamily%3DArchitects%2BDaughter;fontSize=16;curved=1;strokeWidth=2;fillColor=#dae8fc;strokeColor=#6c8ebf;" edge="1" parent="lxY1VcK9E-mRwptWyb03-126" source="lxY1VcK9E-mRwptWyb03-122" target="lxY1VcK9E-mRwptWyb03-119">
          <mxGeometry relative="1" as="geometry" />
        </mxCell>
        <mxCell id="lxY1VcK9E-mRwptWyb03-122" value="EG" style="triangle;whiteSpace=wrap;strokeWidth=2;fillColor=#ffe6cc;strokeColor=#d79b00;rounded=0;sketch=1;curveFitting=1;jiggle=2;fontFamily=Architects Daughter;fontSource=https%3A%2F%2Ffonts.googleapis.com%2Fcss%3Ffamily%3DArchitects%2BDaughter;fontSize=18;labelPosition=center;verticalLabelPosition=middle;align=center;verticalAlign=middle;labelBackgroundColor=none;labelBorderColor=none;html=1;spacingRight=0;spacingLeft=0;spacing=2;fontStyle=0" vertex="1" parent="lxY1VcK9E-mRwptWyb03-126">
          <mxGeometry x="450" y="110" width="60" height="80" as="geometry" />
        </mxCell>
        <mxCell id="lxY1VcK9E-mRwptWyb03-121" style="edgeStyle=orthogonalEdgeStyle;sketch=1;hachureGap=4;jiggle=2;curveFitting=1;orthogonalLoop=1;jettySize=auto;html=1;entryX=0;entryY=0.5;entryDx=0;entryDy=0;fontFamily=Architects Daughter;fontSource=https%3A%2F%2Ffonts.googleapis.com%2Fcss%3Ffamily%3DArchitects%2BDaughter;fontSize=16;curved=1;strokeWidth=2;fillColor=#dae8fc;strokeColor=#6c8ebf;" edge="1" parent="lxY1VcK9E-mRwptWyb03-126" source="lxY1VcK9E-mRwptWyb03-103" target="lxY1VcK9E-mRwptWyb03-119">
          <mxGeometry relative="1" as="geometry" />
        </mxCell>
        <mxCell id="lxY1VcK9E-mRwptWyb03-124" style="edgeStyle=orthogonalEdgeStyle;sketch=1;hachureGap=4;jiggle=2;curveFitting=1;orthogonalLoop=1;jettySize=auto;html=1;exitX=0.5;exitY=1;exitDx=0;exitDy=0;fontFamily=Architects Daughter;fontSource=https%3A%2F%2Ffonts.googleapis.com%2Fcss%3Ffamily%3DArchitects%2BDaughter;fontSize=16;fillColor=#ffe6cc;strokeColor=#d79b00;curved=1;strokeWidth=2;" edge="1" parent="lxY1VcK9E-mRwptWyb03-126" source="lxY1VcK9E-mRwptWyb03-87" target="lxY1VcK9E-mRwptWyb03-122">
          <mxGeometry relative="1" as="geometry">
            <Array as="points">
              <mxPoint x="560" y="100" />
              <mxPoint x="480" y="100" />
            </Array>
          </mxGeometry>
        </mxCell>
      </root>
    </mxGraphModel>
  </diagram>
</mxfile>
